<?xml version="1.0" standalone="no"?>
<!DOCTYPE svg PUBLIC "-//W3C//DTD SVG 20010904//EN"
 "http://www.w3.org/TR/2001/REC-SVG-20010904/DTD/svg10.dtd">
<svg version="1.0" xmlns="http://www.w3.org/2000/svg"
 width="384.000000pt" height="144.000000pt" viewBox="0 0 384.000000 144.000000"
 preserveAspectRatio="xMidYMid meet">
<metadata>
Created by potrace 1.15, written by Peter Selinger 2001-2017
</metadata>
<g transform="translate(0.000000,144.000000) scale(0.100000,-0.100000)"
fill="#000000" stroke="none">
<path d="M675 1024 c-22 -9 -49 -17 -61 -17 -32 -3 -103 -56 -133 -101 -41
-61 -53 -99 -53 -164 0 -113 70 -211 180 -253 108 -40 255 -13 320 60 59 65
79 171 46 249 -19 46 -68 98 -116 123 -45 23 -127 25 -167 4 -39 -20 -78 -69
-91 -113 -13 -50 -13 -73 2 -47 6 11 25 35 41 53 106 111 292 11 263 -142 -24
-127 -221 -171 -332 -74 -56 50 -68 81 -69 184 0 83 2 94 30 139 17 26 41 55
55 63 22 14 21 11 -7 -19 -111 -119 -91 -318 38 -385 48 -24 64 -17 28 13 -91
77 -91 239 0 316 84 70 208 53 293 -41 83 -92 83 -232 0 -324 -53 -59 -103
-81 -198 -86 -110 -6 -168 14 -240 82 -41 37 -61 66 -75 106 -18 51 -19 52
-14 15 3 -22 19 -68 36 -102 101 -208 386 -251 545 -81 68 73 89 126 89 228 0
73 -4 93 -28 141 -32 67 -100 133 -165 161 -62 28 -164 33 -217 12z"/>
<path d="M1722 1024 c-27 -18 -28 -36 -4 -57 14 -13 38 -17 95 -17 l77 0 0
-225 0 -226 -25 -23 -24 -23 37 -36 c21 -20 45 -37 53 -37 37 0 39 18 39 297
l0 273 79 0 c59 0 84 4 95 16 22 21 20 40 -6 58 -33 23 -383 23 -416 0z"/>
<path d="M3077 1027 c-16 -11 -17 -31 -15 -175 l3 -164 38 38 37 37 0 123 c0
98 -3 126 -16 138 -19 19 -25 20 -47 3z"/>
<path d="M3008 971 l-38 -41 0 -211 c0 -126 4 -218 10 -230 22 -40 70 -12 70
41 0 15 44 65 140 157 78 75 139 137 137 139 -2 2 -28 1 -58 -3 -51 -6 -58
-10 -136 -86 l-83 -80 -2 178 -3 178 -37 -42z"/>
<path d="M1646 952 c-64 -67 -46 -92 66 -92 l78 0 0 -173 c0 -188 6 -212 51
-205 l24 3 3 228 2 227 -74 0 c-67 0 -76 2 -94 24 l-19 25 -37 -37z"/>
<path d="M2773 829 c-42 -12 -73 -53 -73 -96 0 -50 14 -70 77 -105 87 -49 103
-116 41 -175 -25 -24 -37 -28 -88 -28 -63 0 -66 -6 -18 -31 45 -24 130 -15
164 17 86 80 67 212 -39 270 -65 35 -73 44 -56 65 11 13 24 15 67 10 56 -7 82
3 82 30 0 34 -97 60 -157 43z"/>
<path d="M1231 812 c-7 -12 -11 -83 -11 -174 0 -161 -4 -178 -44 -178 -17 0
-14 -6 19 -40 39 -40 71 -50 93 -28 8 8 12 56 12 150 0 154 7 180 56 203 42
20 77 11 109 -27 23 -27 25 -38 25 -128 0 -106 -10 -130 -53 -130 -19 -1 -15
-6 23 -40 86 -75 110 -48 110 125 0 139 -10 183 -51 230 -38 42 -87 59 -148
51 -57 -9 -69 -9 -103 -1 -20 6 -29 2 -37 -13z"/>
<path d="M2345 811 c-83 -51 -107 -148 -54 -216 11 -14 25 -25 31 -25 6 0 6 6
-2 15 -17 21 -14 89 5 119 9 13 32 32 52 41 44 21 96 9 134 -31 21 -23 24 -36
27 -125 3 -68 0 -104 -8 -114 -14 -17 -66 -20 -75 -5 -4 6 -15 6 -31 0 -40
-16 -102 -12 -143 9 -43 23 -55 35 -81 87 -21 42 -26 30 -10 -27 13 -48 75
-118 124 -140 51 -23 113 -24 166 -3 38 15 42 15 60 -1 26 -24 68 -13 76 20 3
13 4 83 3 154 -4 125 -5 131 -34 173 -55 79 -170 112 -240 69z"/>
<path d="M3207 689 c-111 -107 -147 -147 -147 -166 0 -36 -18 -63 -42 -63 -20
0 -18 -4 17 -40 63 -65 105 -47 105 44 0 47 4 56 36 87 l35 34 19 -25 c27 -35
25 -66 -5 -86 l-26 -17 58 -38 c68 -46 96 -49 119 -13 20 30 14 47 -61 164
l-47 73 74 74 c61 61 71 76 62 91 -25 40 -48 26 -197 -119z"/>
<path d="M2273 789 c-49 -31 -76 -82 -76 -143 0 -80 33 -130 106 -161 46 -19
84 -19 121 0 27 14 31 14 38 0 5 -8 17 -15 27 -15 35 0 43 25 40 121 -4 88 -5
92 -37 120 -45 41 -102 41 -143 0 -37 -37 -37 -55 0 -34 57 33 127 -27 99 -85
-29 -59 -104 -64 -158 -11 -50 50 -52 124 -5 194 14 19 23 35 22 35 -1 0 -16
-10 -34 -21z"/>
<path d="M1173 768 l-33 -34 0 -126 c0 -120 1 -127 21 -133 44 -14 50 9 47
174 l-3 152 -32 -33z"/>
<path d="M2669 768 c-18 -24 -24 -46 -24 -83 0 -61 22 -94 83 -127 23 -13 42
-26 42 -30 0 -15 -35 -25 -70 -21 -71 10 -80 -52 -10 -70 75 -19 150 22 150
83 0 44 -15 67 -58 89 -78 40 -109 92 -91 154 12 42 5 44 -22 5z"/>
<path d="M1344 725 c-18 -14 -18 -14 7 -15 42 0 49 -17 49 -120 0 -99 7 -120
42 -120 27 0 38 32 38 113 0 84 -13 133 -40 147 -27 15 -73 12 -96 -5z"/>
</g>
</svg>
